# xmcd
# Track frame offsets:
# 150
# 12597
# 22433
# 35004
# 46256
# 57503
# 70400
# 81299
# 95877
# 107092
#
# Disc length: 1610 seconds
# Revision: 0
# Processed by: cddbd v1.5.2PL0 Copyright (c) Steve Scherf et al.
# Submitted via: VisiTrax 2.11.1.266 - For more info visit www.synapsa.com
#
DISCID=9406480a
DTITLE=Various Artist - Biggest Country #1 Hits
DYEAR=1900
DGENRE=Country
TTITLE0=Johnny Cash - I Walk The Line
TTITLE1=Merle Haggard - Mam Tried
TTITLE2=Hank Williams - Lovesick Blues
TTITLE3=Ray Price - Crazy Arms
TTITLE4=Conway Twitty - Hello Darlin'
TTITLE5=Charlie Rich - The Most Beautiful Girl
TTITLE6=Gearge Jones - Tender Years
TTITLE7=Jeannie C. Riley - Harper Valley P.T.A.
TTITLE8=Marty Robbins - Singing The Blues
TTITLE9=Willie Nelson and Leon Russell - Heartbreak Hotel
EXTD=
EXTT0=
EXTT1=
EXTT2=
EXTT3=
EXTT4=
EXTT5=
EXTT6=
EXTT7=
EXTT8=
EXTT9=
PLAYORDER=
